<svg preserveAspectRatio="none" width="100%" height="100%" overflow="visible" style="display: block;" viewBox="0 0 18 22" fill="none" xmlns="http://www.w3.org/2000/svg">
<g id="Container">
<path id="Icon" d="M0 22V15C0 13.6167 0.4875 12.4375 1.4625 11.4625C2.4375 10.4875 3.61667 10 5 10H6V2C6 1.45 6.19583 0.979167 6.5875 0.5875C6.97917 0.195833 7.45 0 8 0H10C10.55 0 11.0208 0.195833 11.4125 0.5875C11.8042 0.979167 12 1.45 12 2V10H13C14.3833 10 15.5625 10.4875 16.5375 11.4625C17.5125 12.4375 18 13.6167 18 15V22H0V22M2 20H4V17C4 16.7167 4.09583 16.4792 4.2875 16.2875C4.47917 16.0958 4.71667 16 5 16C5.28333 16 5.52083 16.0958 5.7125 16.2875C5.90417 16.4792 6 16.7167 6 17V20H8V17C8 16.7167 8.09583 16.4792 8.2875 16.2875C8.47917 16.0958 8.71667 16 9 16C9.28333 16 9.52083 16.0958 9.7125 16.2875C9.90417 16.4792 10 16.7167 10 17V20H12V17C12 16.7167 12.0958 16.4792 12.2875 16.2875C12.4792 16.0958 12.7167 16 13 16C13.2833 16 13.5208 16.0958 13.7125 16.2875C13.9042 16.4792 14 16.7167 14 17V20H16V15C16 14.1667 15.7083 13.4583 15.125 12.875C14.5417 12.2917 13.8333 12 13 12H5C4.16667 12 3.45833 12.2917 2.875 12.875C2.29167 13.4583 2 14.1667 2 15V20V20M10 10V2V2V2H8V2V2V10H10V10M10 10H8V10V10V10H10V10V10V10V10" fill="#FFC107"/>
</g>
</svg>
